<?xml version="1.0" standalone="no"?>
<!DOCTYPE svg PUBLIC "-//W3C//DTD SVG 20010904//EN"
 "http://www.w3.org/TR/2001/REC-SVG-20010904/DTD/svg10.dtd">
<svg version="1.0" xmlns="http://www.w3.org/2000/svg"
 width="16.000000pt" height="16.000000pt" viewBox="0 0 16.000000 16.000000"
 preserveAspectRatio="xMidYMid meet">
<metadata>
Created by potrace 1.11, written by Peter Selinger 2001-2013
</metadata>
<g transform="translate(0.000000,16.000000) scale(0.001563,-0.001563)"
fill="#000000" stroke="none">
<path d="M1209 9866 c-2 -2 -25 -7 -51 -10 -26 -4 -78 -16 -115 -27 -299 -92
-542 -338 -628 -632 -44 -150 -42 -4 -44 -4502 l-2 -4285 946 946 946 946
3372 2 c1855 2 3386 6 3402 9 17 4 52 12 79 19 292 66 570 323 665 613 53 164
51 -23 48 3175 l-2 2955 -23 80 c-52 178 -129 311 -252 435 -116 117 -278 213
-415 246 -139 34 -79 33 -4046 34 -2132 0 -3878 -2 -3880 -4z m6728 -2359 l-2
-472 -2837 -2 -2838 -2 1 474 0 475 2838 -1 2839 0 -1 -472z m-1 -1423 l2
-470 -2839 0 -2839 -1 0 474 0 473 2838 -2 2837 -3 1 -471z m-1891 -1416 c1
-318 -2 -469 -10 -471 -5 -2 -856 -3 -1890 -3 l-1880 1 -2 473 -3 472 1893 -2
1892 -3 0 -467z"/>
</g>
</svg>
