<svg version="1" xmlns="http://www.w3.org/2000/svg" width="1365.333" height="1365.333" viewBox="0 0 1024.000000 1024.000000"><path d="M74.5 36.9c-9.9 2.9-16.5 6.9-24 14.5-7.7 7.8-11.6 14.8-14 24.8-1.2 5.1-1.4 11.2-1 32.8.3 14.6.7 28.3.9 30.5.3 2.2.7 8.3 1 13.5.9 14.6 1.8 23.2 4.2 43.7.6 5.8 1.1 9.7 2.4 18.3.5 3.6 1.2 8.3 1.5 10.5.3 2.2.7 5.1 1 6.5.2 1.4.7 4.1.9 6 .5 3.2 1.5 8.1 2 10.5.2.5.6 3.2 1.1 6 .6 4.1 2.9 15.4 5.1 25 .2 1.1.7 3.3.9 4.8.3 1.5 1.2 5.6 2.1 9 .8 3.4 1.7 7.2 2 8.5.2 1.3 2 8.3 4 15.5 1.9 7.3 3.7 13.9 3.9 14.7 2.5 9.7 10.9 36.4 18.1 57 13.3 38.7 38.3 94.5 58.3 130.4 3.4 6 6.1 11.1 6.1 11.3 0 1.8 38.9 63.6 45.2 71.8.5.5 4.9 6.6 9.8 13.5s9.9 13.6 10.9 15c5.7 7.4 26.6 33.6 28.6 35.9 23.3 27.1 32.1 36.6 54 58.6 49.3 49.2 101.4 90.6 160 127.2 8.8 5.5 18 11.2 20.5 12.6 61.1 35.1 117.1 60.2 177.5 79.7 14.1 4.5 32.1 10 34.4 10.5.9.2 6.6 1.7 12.7 3.4 6.2 1.7 12.7 3.3 14.5 3.6 1.8.3 3.5.8 3.9 1 .6.4 24.5 5.8 30 6.8 1.4.3 6 1.2 10.2 2.1 4.2.9 9.3 1.9 11.4 2.2 2 .3 4.6.8 5.8 1 2.8.5 20.1 3.3 24 3.9 1.7.2 6.3.8 10.1 1.4 3.9.5 10.2 1.3 14 1.6 3.9.4 7.7.8 8.5 1 1.4.4 5.2.7 20.5 2 3.3.3 8.5.7 11.5 1 21.4 2 67.4 3 75.6 1.6 20.5-3.6 35.9-17.4 42.4-38.4 1.9-6 2-10.1 2-105.1 0-83.9-.2-99.8-1.5-105.2-3.6-15.8-13.6-28.3-28.5-35.9-8.5-4.2-15.6-5.3-42-6-11.8-.4-22.8-.8-24.5-1-1.6-.1-6.1-.6-10-.9-15.6-1.5-24.3-2.5-29-3.2-1.6-.3-4.6-.7-6.5-1-24.4-3.2-61.8-11.7-90.5-20.6-15.9-5-17.1-5.2-26.5-5.3-12.4 0-23.1 3.4-31.5 10.2-1.6 1.3-29.9 29.2-62.7 62l-59.7 59.5-9.8-5.2c-12.8-6.8-33.5-18.7-44.8-25.7-4.9-3-10.2-6.3-11.7-7.2-16.7-10.1-65-45.2-75.4-54.6-.6-.6-3.3-2.8-6-5-24.8-20.4-61.3-55.3-81.4-78-2-2.2-5.8-6.5-8.5-9.5-5.3-5.9-9.6-11-19.5-23-3.4-4.1-6.9-8.4-7.8-9.5-11.1-13.3-44.4-60.8-52.7-75.2-.6-1-4.2-7.2-8.1-13.8-8.5-14.3-9.2-15.6-17.4-30.8l-6.2-11.8 60.1-60.2c33.1-33.1 61.7-62.5 63.5-65.2 1.9-2.8 4.5-8.2 5.9-12.2 3.8-10.4 3.3-23.6-1.2-38.3-10.2-32.9-18.9-70.2-21.6-92.5-.3-2.8-1-7.5-1.5-10.5s-1.2-8.4-1.5-12c-.3-3.6-.8-7.9-1.1-9.5-.4-3.1-.9-9.1-1.9-25-.3-5-.8-16.4-.9-25.5-.2-9.1-.7-17.9-1.1-19.5-3.6-15.5-14.6-30-27.8-36.4-13-6.3-8.2-6.1-117.6-6-91.7 0-100.1.2-105.6 1.8z"/></svg>