<svg width="128" height="28" viewBox="0 0 128 28" xmlns="http://www.w3.org/2000/svg"><title>Slice 1</title><desc>Created with Sketch.</desc><g fill="#EF6C00"><path d="M127.895 13.692c-.924 4.834-11.51 8.841-24.589 9.614l3.261-5.73c9.312-.879 16.148-3.34 16.357-6.24.262-3.638-10.08-6.574-23.089-6.574-4.342 0-8.423.334-11.946.896l.052-.299c2.755-.58 5.79-.984 8.963-1.195l3.069-4.166 2.877 3.955c14.858.088 26.053 4.412 25.042 9.737zm-27.902-.475c-2.197 0-4.15-.299-5.493-.773l5.476 10.317 6.365-10.581c-1.447.633-3.767 1.037-6.348 1.037zM11.492 20.67l-8.58-10.968-.035-.053h-2.86v16.821h3.087v-11.372l8.841 11.319.035.053h2.598v-16.821h-3.087zM30.5 9.526l7.324 16.944h-3.401l-5.301-12.409-5.301 12.409h-3.418l7.342-16.944zM48.706 21.935l-5.301-12.409h-3.505l7.342 16.944h2.843l7.342-16.944h-3.418z" id="Shape"/><path d="M63.669 9.649h3.139v16.821h-3.139z"/><path d="M81.979 16.61c-3.244-.773-3.819-1.318-3.819-2.478v-.053c0-1.09 1.029-1.828 2.546-1.828 1.447 0 2.877.545 4.377 1.67l.105.07 1.692-2.408-.087-.07c-1.761-1.424-3.732-2.109-6.034-2.109-3.383 0-5.737 2.021-5.737 4.921v.053c0 2.355.907 3.937 5.563 5.062 3.069.721 3.61 1.353 3.61 2.408v.053c0 1.195-1.099 1.951-2.79 1.951-1.849 0-3.418-.65-5.11-2.127l-.105-.088-1.901 2.267.087.088c1.953 1.758 4.342 2.689 6.941 2.689 3.645 0 5.999-1.986 5.999-5.08v-.053c.017-2.566-1.517-4.007-5.336-4.939z"/></g></svg>